<?xml version="1.0" encoding="UTF-8"?>
<svg xmlns="http://www.w3.org/2000/svg" id="uuid-15f52b00-5291-4f44-a5aa-85c39febc48e" data-name="Ebene 1" viewBox="0 0 628.9199 188.0386">
  <g>
    <path d="M596.7046,38.86s8.6407-2.2607,12.4832,9.2307c2.7892,8.3062,14.7654,8.0507,19.154,7.7425.5949-.041.7412.5306.3901.7929-2.4381,1.8169-8.4359,5.5024-16.5696,5.8759-13.4585.6193-18.2763-14.8121-15.4577-23.642Z" fill="#f805d8" fill-rule="evenodd"></path>
    <path d="M248.426,141.2865c0,1.28-.3199,2.3201-.9701,3.12-.6499.7999-1.5,1.2001-2.5699,1.2001h-46.67c-.6099-.5601-1.1199-1.24-1.5399-2.04s-.63-1.64-.63-2.52c0-1.12.21-2.14.63-3.0601.42-.9199,1.0099-1.8899,1.7699-2.9299l37.6101-54.09h-38.0701c-.23-.4-.47-.96-.74-1.68-.27-.72-.3999-1.48-.3999-2.28,0-1.35.3199-2.41.97-3.17.6499-.76,1.54-1.14,2.6799-1.14h44.96c1.4501,1.28,2.17,2.8,2.17,4.55,0,1.12-.21,2.12-.63,3-.4099.8799-1,1.8799-1.76,3l-37.51,54.08h39.5601c.3.3999.5701.9399.8,1.6199.23.6801.34,1.4601.34,2.3401ZM295.8921,117.0096c.76-.76,1.14-2.02,1.14-3.78,0-4.8-1-9.05-3.02-12.77-2.02-3.72-4.79-6.62-8.33-8.7-3.54-2.07-7.63-3.11-12.27-3.11-3.65,0-7.03.66-10.15,1.98-3.12,1.31-5.8,3.21-8.05,5.69-2.24,2.48-3.99,5.5-5.25,9.06-1.25,3.55-1.88,7.61-1.88,12.17,0,6.39,1.16,11.81,3.48,16.25,2.32,4.43,5.63,7.77,9.93,10.01,4.3,2.24,9.3701,3.36,15.23,3.36,3.35,0,6.37-.4,9.07-1.2,2.71-.8,4.87-1.86,6.5099-3.18,1.63-1.32,2.45-2.74,2.45-4.26,0-.96-.24-1.81-.74-2.5699-.49-.76-1.16-1.42-2-1.98-1.52,1.28-3.57,2.48-6.16,3.59-2.59,1.12-5.48,1.68-8.67,1.68-6.0099,0-10.75-1.66-14.21-4.97-2.73-2.62-4.55-6.1899-5.46-10.72l35.19-5.17c1.37-.16,2.43-.62,3.19-1.38ZM257.0021,116.0296c.15-6.1299,1.68-10.8799,4.6-14.25,3.08-3.56,6.98-5.34,11.7-5.34,4.5601,0,8.14,1.42,10.73,4.26,2.58,2.84,4.03,6.45,4.33,10.85l-31.36,4.48ZM329.796,138.6464c-.38-.72-.8-1.3199-1.26-1.7899-1.0601.6299-2.4,1.1899-3.99,1.6699-1.6001.48-3.05.72-4.3401.72-3.0399,0-5.4399-.6599-7.1899-1.98-1.75-1.3101-2.62-3.5701-2.62-6.77v-31.1799h16.3199c1.0601,0,1.9001-.3601,2.51-1.0801.6001-.72.91-1.72.91-3,0-.7999-.12-1.5599-.34-2.28-.23-.72-.46-1.24-.6899-1.5599h-18.7101v-13.79c0-1.51-.4-2.61-1.2001-3.29-.7999-.68-2-1.02-3.5999-1.02-.9102,0-1.77.1-2.5601.3-.8.2-1.39.38-1.77.54v56.9601c0,5.76,1.65,9.8699,4.96,12.3499,3.3101,2.4801,7.6301,3.7201,12.9501,3.7201,3.5,0,6.24-.5599,8.22-1.6801,1.98-1.1199,2.9701-2.5599,2.9701-4.3199,0-.9601-.1901-1.7999-.5701-2.52ZM362.2059,138.6464c-.3799-.72-.7999-1.3199-1.26-1.7899-1.0599.6299-2.3999,1.1899-3.99,1.6699-1.5999.48-3.0499.72-4.3398.72-3.04,0-5.4401-.6599-7.1901-1.98-1.75-1.3101-2.62-3.5701-2.62-6.77v-31.1799h16.3101c1.0698,0,1.9099-.3601,2.5199-1.0801.6-.72.91-1.72.91-3,0-.7999-.12-1.5599-.3401-2.28-.23-.72-.46-1.24-.6899-1.5599h-18.71v-13.79c0-1.51-.4-2.61-1.2-3.29-.8-.68-2-1.02-3.6001-1.02-.9099,0-1.77.1-2.5601.3-.7999.2-1.3899.38-1.7699.54v56.9601c0,5.76,1.65,9.8699,4.96,12.3499,3.3099,2.4801,7.63,3.7201,12.9501,3.7201,3.5,0,6.24-.5599,8.22-1.6801,1.98-1.1199,2.97-2.5599,2.97-4.3199,0-.9601-.1899-1.7999-.5701-2.52ZM410.0121,117.0096c.76-.76,1.14-2.02,1.14-3.78,0-4.8-1.01-9.05-3.02-12.77-2.02-3.72-4.8-6.62-8.33-8.7-3.54-2.07-7.6299-3.11-12.27-3.11-3.65,0-7.04.66-10.16,1.98-3.12,1.31-5.8,3.21-8.04,5.69-2.25,2.48-4,5.5-5.25,9.06-1.26,3.55-1.88,7.61-1.88,12.17,0,6.39,1.16,11.81,3.48,16.25,2.32,4.43,5.63,7.77,9.92,10.01,4.3,2.24,9.38,3.36,15.24,3.36,3.35,0,6.37-.4,9.07-1.2,2.7-.8,4.87-1.86,6.51-3.18,1.6299-1.32,2.45-2.74,2.45-4.26,0-.96-.25-1.81-.74-2.5699-.5-.76-1.16-1.42-2-1.98-1.52,1.28-3.57,2.48-6.16,3.59-2.59,1.12-5.48,1.68-8.67,1.68-6.0099,0-10.75-1.66-14.21-4.97-2.73-2.62-4.55-6.1899-5.46-10.72l35.19-5.17c1.37-.16,2.43-.62,3.19-1.38ZM371.1221,116.0296c.15-6.1299,1.68-10.8799,4.6-14.25,3.08-3.56,6.98-5.34,11.7-5.34,4.56,0,8.14,1.42,10.72,4.26,2.59,2.84,4.03,6.45,4.34,10.85l-31.36,4.48ZM424.1061,68.0764c-.79-.68-2.03-1.02-3.7002-1.02-.8398,0-1.6599.1-2.46.3-.7998.2-1.3899.38-1.77.54v73.99c0,1.52.4202,2.62,1.26,3.3.8401.6801,2.05,1.0199,3.6501,1.0199.9099,0,1.75-.0999,2.51-.2999.76-.2001,1.3298-.38,1.71-.5399v-73.9901c0-1.52-.4001-2.62-1.2-3.3ZM482.306,75.9365c-.3401-1.28-.78-2.28-1.3101-3h-37.8899c-2.8901,0-5.1899.8799-6.9001,2.64-1.71,1.75-2.5701,4.15-2.5701,7.19v54.92c0,3.2.7302,5.46,2.1702,6.7799,1.45,1.3201,3.9199,1.98,7.4199,1.98,1.6001,0,3.1599-.0999,4.6799-.2999s2.6602-.42,3.4202-.66v-26.86h21.46c1.97,0,3.51-.62,4.6199-1.86,1.1001-1.24,1.6501-3.1799,1.6501-5.8201,0-1.4399-.21-2.7999-.6301-4.0699-.4099-1.2799-.8499-2.2799-1.3098-3h-26.02v-16.0699h25.5701c1.8999,0,3.3999-.64,4.5-1.92,1.1099-1.2799,1.6599-3.2,1.6599-5.76,0-1.52-.1702-2.92-.52-4.1899ZM538.9621,134.0996c-1.37-1.92-2.89-4.04-4.56-6.36-1.68-2.32-3.44-4.72-5.31-7.19-.75-1.01-1.5-2.01-2.24-3.02,3.85-2.11,6.94-4.9,9.26-8.3799,2.5099-3.75,3.77-8.07,3.77-12.95,0-7.67-2.59-13.79-7.76-18.35-5.18-4.55-12.94-6.83-23.28-6.83-3.66,0-7.17.2-10.56.6-3.38.4-6.33,1.08-8.84,2.04-1.37.48-2.5,1.16-3.37,2.04-.87.87-1.31,2.11-1.31,3.71v58.28c0,3.2.72,5.46,2.17,6.78,1.44,1.32,3.88,1.98,7.3,1.98,1.67,0,3.27-.1,4.79-.3,1.52-.2,2.66-.42,3.43-.66v-24.22h8.19l11.09,18.1c1.29,2.24,2.7,4.02,4.22,5.34,1.53,1.3199,3.73,1.98,6.62,1.98,2.21,0,4.21-.68,5.99-2.04,1.79-1.36,3.03-3.2401,3.71-5.64-.83-1.36-1.94-2.99-3.31-4.91ZM518.5921,104.2996c-2.32,1.8-5.34,2.69-9.07,2.69h-7.3v-20.5c1.06-.16,2.11-.3,3.14-.42,1.02-.12,2.14-.18,3.36-.18,4.49,0,7.84.9,10.04,2.7,2.21,1.8,3.31,4.41,3.31,7.85s-1.16,6.06-3.48,7.86ZM593.516,134.2164c-.3801-1.2799-.8-2.3199-1.25-3.1199h-30.3601v-15.23h22.3701c1.8999,0,3.3799-.6001,4.45-1.8,1.0601-1.2,1.6001-3.1201,1.6001-5.76,0-1.4301-.1702-2.77-.52-4.01-.3401-1.24-.78-2.26-1.3101-3.0601h-26.5901v-13.6699h25.5601c1.98,0,3.5-.6201,4.5701-1.8601,1.0601-1.24,1.5999-3.1799,1.5999-5.8199,0-1.44-.2-2.78-.5698-4.01-.3901-1.24-.8-2.22-1.26-2.9399h-37.6599c-2.8901,0-5.1902.8799-6.9001,2.64-1.72,1.75-2.5701,4.15-2.5701,7.19v53.25c0,3.03.8501,5.4299,2.5701,7.1899,1.71,1.76,4.01,2.6401,6.9001,2.6401h33.8899c1.9099,0,3.3899-.6001,4.45-1.8,1.0701-1.2,1.6001-3.0801,1.6001-5.64,0-1.51-.1899-2.91-.5701-4.1901ZM613.086,73.5365c-1.48-1.2-3.9001-1.8-7.24-1.8-1.52,0-3.0701.12-4.6301.36-1.5498.24-2.75.44-3.5898.6v64.9901c0,3.2.72,5.46,2.1699,6.7799,1.4399,1.3201,3.9199,1.98,7.4099,1.98,1.6001,0,3.1602-.0999,4.6799-.2999,1.52-.2001,2.6702-.42,3.4302-.66v-64.9999c0-3.44-.74-5.75-2.23-6.95Z" fill="#f6f4ff"></path>
  </g>
  <path d="M42.3023,160.4153c-1.7501.4337-3.5763.7944-5.3264,1.0911-13.4681,2.2508-25.5667.8979-25.5667.8979-1.5979-.1743-2.8915-1.2943-3.2719-2.8199-.3805-1.5256.1522-3.1426,1.4457-4.0686,2.2066-1.6048,3.7285-3.2308,4.9459-4.933-2.1306.1233-4.8698-.0228-9.2831-.1347-1.674-.0434-3.1958-1.2152-3.5763-2.8694-.4565-1.655.3044-3.3898,1.7501-4.2497,3.348-1.9533,5.4025-3.6227,7.0004-5.3971-2.2066.0845-3.9567-.1195-7.2287-.6826-1.5218-.2678-2.8154-1.4625-3.1197-3.0079-.3044-1.5454.3805-3.1235,1.674-3.9735,0,0,19.2511-12.3382,25.7188-36.2407,2.1306-7.9455,7.4569-12.3595,13.9247-13.7976.0761-.0571.1522-.1195.1522-.1872,3.7285-4.516,8.1418-7.7469,10.9571-9.6902.1522-.1339,1.2936-.9032,2.8915-.6224,1.5218.2808,2.2827,1.3818,2.4349,1.5736s.9131,1.2936.6087,2.8542c-.0761.4809-.3044.9549-.5326,1.3674-.5326.8051-.5326.7624-1.3696,1.3103-1.7501,1.235-3.2719,2.3885-4.5655,3.504,9.3592,2.0529,19.0989,8.9864,24.0448,19.5288,9.968,21.2865-1.2936,40.4128-12.6311,50.4211-3.8046,3.3024-8.2179,5.7784-12.9355,7.6129,17.2727,17.348,43.9046,18.809,62.4709,9.8607,1.5218-.7274,2.8915-1.4914,4.185-2.263l-8.8266,1.8072c-1.0653.2237-2.2066-.0373-3.0436-.7153-.9131-.6772-1.4457-1.7044-1.5218-2.8131l-3.6524-65.3494c-.0761-1.9038,1.2175-3.5938,3.1197-3.9613l29.0669-5.7091c-.0761-.0609-.0761-.1225-.1522-.1834-.3044-.398-.3044-.3797-.5326-.8187-.9131-1.8886.0761-3.4272.2283-3.6775.4565-.8484,3.8046-3.959,7.0004-10.3423,9.3592-18.5708,4.9459-42.4452-12.7072-56.3364-20.1642-15.8217-48.6223-11.5438-64.2971,6.8391-4.7177,5.4801-9.968,14.4718-9.8158,26.6319.0761,6.2509,1.8262,8.8913,1.9023,9.1059.1522.4809.3805.9443.4565,1.4442,0,.229.1522,1.55-.837,2.756-.1522.1841-.9892,1.2448-2.5871,1.4016-1.5979.1522-2.5871-.6848-2.8154-.8301-.6848-.5981-.6848-.6399-1.0653-1.4823-.3805-.6696-3.7285-6.5872-2.3588-18.6439C48.4657,12.4399,85.5982-9.31,118.0131,3.9557c24.0448,9.8219,37.7413,35.7051,31.8061,61.3676-2.3588,10.3324-7.2287,17.4858-10.1201,21.0872.1522.245.3044.4984.4565.7967l14.7617-2.9029c1.0653-.2146,2.2066.0578,3.1197.7449.837.6871,1.3696,1.7212,1.4457,2.8321l.3044,6.7105,3.0436-2.1496c1.4457-1.009,3.348-.9131,4.6416.2321,5.0981,4.3988,9.8919,14.5235,9.8158,21.5947,0,2.5551-.6087,4.7587-1.7501,6.4693.6087,1.3308,1.2175,3.0345,1.5979,4.8927,1.0653,4.917.3044,10.7258-6.2395,14.4475-3.2719,1.8429-6.2395,3.0703-8.9027,3.8388l.3805,8.9925c.0761,1.8764-1.2175,3.5352-3.0436,3.9134l-26.0993,5.3652c-.1522.1149-.2283.2496-.4565.436-5.3264,5.5638-11.4898,9.7617-18.0336,12.7133,23.36,1.0143,39.7196,3.3564,39.7196,6.0797,0,3.6524-29.4473,6.6176-65.6667,6.6176-36.2955,0-65.7428-2.9653-65.7428-6.6176,0-2.7126,16.2835-5.0464,39.4914-6.0675-10.5767-4.7298-17.0444-11.3094-20.2403-14.9344ZM152.1781,96.733c-.0761-2.1161-.1522-4.0777-.1522-4.0777l-43.9807,8.6401c4.6416,4.4491,20.849,20.0531,24.1209,23.2261-.4565-1.9791-.6848-4.9497-.3044-7.2682.1522-1.0128.4565-1.9198.7609-2.6525l.6087-.9473.837-.9435c.0761-.0928.2283-.1803.3044-.2617l13.6203-9.5776,4.185-6.1375ZM108.5017,112.3484c.9131,16.7249,2.5871,46.5846,2.5871,46.5846l43.5242-8.9377-.2283-5.0007c-1.0653-.0243-1.9784-.1278-2.8915-.2884.6087,1.4024.3044,3.0665-.9131,4.1774-1.5218,1.4609-3.8807,1.4138-5.4025-.1058l-11.3376-11.8025-11.9463,17.2681c-1.2175,1.7326-3.5763,2.164-5.3264.9633-1.7501-1.2015-2.1306-3.5831-.9892-5.3157l12.7833-18.4278-19.8598-19.1149ZM147.8409,132.8893c0,.0205-.0761.0403-.0761.0609.0761.0731.0761.1469.1522.2207.837,1.467,2.1306,2.9318,3.5002,3.5846,2.7393,1.2837,7.9896,1.0417,15.6748-3.3282,2.8154-1.5964,3.0436-4.1432,2.5871-6.2524-.1522-.5699-.3044-1.117-.4565-1.6276-6.2395,4.1021-14.0008,6.4746-21.3816,7.342ZM169.3747,116.0929c.1522-.2641.1522-.5722.2283-.8895.0761-.9412.0761-2.008-.1522-3.1357-.6087-3.8738-2.5871-8.3776-4.9459-11.4715l-11.4898,8.0824c0,.0282-.0761.0555-.0761.0829l-13.4681,9.4696c-.0761.1758-.0761.4314-.1522.6978,5.4025-2.0271,10.805-3.9012,16.2074-5.8758,1.9023-.6917,1.9784-.3515,3.9567-.7069-1.0653.7929-1.7501,2.0354-2.8154,2.8283-.0761.0122-10.5006,7.2781-14.9139,10.3545.0761.0502.1522.0997.1522.1469.2283-.0335.3805-.0525.6087-.0571,8.5983-.1986,18.8706-2.8032,25.5667-8.7612.3805-.3523.837-.6064,1.2936-.7647ZM69.0864,103.1087c-4.7177-10.1262-15.0661-16.1861-23.5883-15.7463-4.8698.2549-9.1309,2.966-10.6528,8.6668-4.3372,15.9404-13.6964,27.2848-20.6207,33.8751.9892-.124,2.1306-.2755,3.5763-.4505,1.4457-.1818,2.8915.5053,3.7285,1.763.7609,1.257.7609,2.8572-.0761,4.1028-1.674,2.6038-2.9676,4.7032-4.4133,6.6215,1.2936-.6217,2.8915-1.5918,5.1742-3.0825,1.5979-.9808,3.5763-.7252,4.8698.608,1.2175,1.3339,1.3696,3.3708.3044,4.8554-2.9676,4.1165-4.5655,7.6099-6.8482,10.8506,4.185-.0023,9.5114-.2595,15.1422-1.2007,7.9135-1.3255,16.4357-3.9742,22.5991-9.414,9.3592-8.246,19.0228-23.9109,10.805-41.4492ZM73.8802,55.8895c-.7609,1.9662-2.9676,2.947-4.9459,2.1876s-2.8915-2.9721-2.1306-4.9391c2.4349-6.4259,8.8266-10.2891,15.2943-10.6223,6.5438-.3409,13.1638,2.8846,15.827,10.3925.6848,1.986-.3044,4.1721-2.2827,4.879-1.9784.7069-4.185-.3325-4.8698-2.3185-1.4457-3.8966-4.8698-5.5006-8.2939-5.3234-3.5763.1842-7.2287,2.1861-8.5983,5.7441ZM120.0676,50.3866c-.2283,2.094-2.1306,3.5961-4.185,3.3518-2.1306-.2442-3.6524-2.142-3.348-4.236.9131-7.9492,7.4569-13.1295,14.0769-13.2254,4.4894-.0654,9.0549,2.0864,12.0985,7.4737.9892,1.8422.3805,4.1698-1.5218,5.1955-1.8262,1.0257-4.1089.363-5.1742-1.4792-1.3696-2.425-3.2719-3.5809-5.3264-3.5519-3.1958.0464-6.1634,2.6678-6.6199,6.4716ZM96.5554,63.5222c3.7285-3.9164,9.4353-6.855,18.4902-7.7598,1.8262-.1834,3.5763.9793,4.0328,2.7606,2.2827,8.0847,2.3588,16.2889,0,24.614-.3805,1.4077-1.5218,2.4707-2.9676,2.7385-1.4457.2678-2.8915-.3066-3.7285-1.48-4.1089-5.4968-8.8266-10.7631-15.2182-15.082-.9131-.63-1.5218-1.636-1.674-2.7515-.0761-1.1147.3044-2.2264,1.0653-3.0398ZM105.6102,66.0994c2.8154,2.231,5.2503,4.621,7.4569,7.1145.2283-3.1517.0761-6.2821-.5326-9.3912-2.7393.5075-5.022,1.2738-6.9243,2.2767Z" fill="#f6f4ff" fill-rule="evenodd"></path>
  <path d="M451.1444,168.5533c-1.0326-1.7887-2.4709-3.1348-4.3057-4.0383-1.8347-.9036-3.9738-1.3554-6.4263-1.3554-.9773,0-1.9454.0369-2.9227.1199-.9681.0738-1.844.249-2.6184.5071-.4057.1383-.7099.3135-.9128.5348-.2213.2213-.3227.544-.3227.9681v20.2284c0,.8667.5255,1.4752,1.5674,1.8163.9035.2858,1.8624.461,2.8766.5255,1.0049.0737,1.8901.1014,2.6738.1014,2.4156,0,4.5269-.461,6.3064-1.3738,1.7887-.922,3.1716-2.3234,4.1674-4.195.9865-1.8809,1.4752-4.2504,1.4752-7.1085,0-2.7014-.5163-4.9418-1.5582-6.7305ZM447.355,182.7426c-1.5121,1.6965-3.7248,2.5447-6.6383,2.5447-.7283,0-1.4383-.0276-2.1206-.0829-.6915-.0461-1.3184-.1568-1.927-.3135v-18.7348c.4979-.1106,1.0511-.1844,1.6504-.2397.5993-.0553,1.2907-.0829,2.056-.0829,1.6965,0,3.2454.3227,4.6284.9681s2.4894,1.6503,3.3284,3.0333c.839,1.3738,1.2539,3.1901,1.2539,5.449,0,3.2823-.7376,5.7716-2.2312,7.4588ZM470.8925,178.1327c.2489-.2489.378-.6546.378-1.2354,0-1.5766-.3411-2.9688-.9958-4.195-.6546-1.217-1.5674-2.1667-2.729-2.849-1.1617-.6915-2.5078-1.0234-4.0291-1.0234-1.1986,0-2.305.212-3.3376.6454-1.0234.4333-1.8993,1.0603-2.6461,1.8716-.7283.8114-1.3092,1.8071-1.7241,2.9688-.3964,1.1709-.6085,2.4985-.6085,4.0014,0,2.0929.378,3.8724,1.1433,5.3291.756,1.4568,1.8532,2.5539,3.2638,3.2915,1.4107.7376,3.0702,1.0972,4.988,1.0972,1.1064,0,2.0929-.1291,2.9872-.3873.8851-.2674,1.6042-.6177,2.139-1.051.5348-.4241.8021-.8944.8021-1.3922,0-.3135-.0922-.5993-.249-.8483-.1567-.2489-.378-.461-.6546-.6453-.4979.4148-1.1709.8114-2.0192,1.1801-.8483.3688-1.7979.5532-2.8582.5532-1.9638,0-3.522-.544-4.656-1.6412-.9035-.8574-1.5028-2.0284-1.7887-3.522l11.5525-1.6964c.4518-.0461.7929-.2029,1.0418-.4518ZM458.1321,177.81c.0461-2.0099.5532-3.5681,1.5121-4.6745,1.0049-1.1709,2.2773-1.7517,3.8354-1.7517,1.4936,0,2.6738.4702,3.5128,1.4014.8574.9312,1.3277,2.1206,1.4199,3.5589l-10.2802,1.4659ZM478.0601,163.5967c0,.5439-.1846,1.0142-.5348,1.3922-.3412.3779-.8022.5715-1.383.5715-.5533,0-1.0143-.1936-1.3922-.5715-.3595-.378-.5533-.8483-.5533-1.3922,0-.5533.1938-1.0235.5533-1.4014.3779-.378.8389-.5716,1.3922-.5716.5807,0,1.0417.1936,1.383.5716.3502.3779.5348.8482.5348,1.4014ZM477.2486,169.4788c-.2582-.2213-.6638-.3318-1.1802-.3318-.2949,0-.59.0276-.8389.0921-.2674.0646-.461.1292-.5902.1752v16.8908c0,.5071.1384.8667.4148,1.088.2859.2213.6733.3319,1.2079.3319.2859,0,.5717-.0277.8115-.0922.2582-.0737.4425-.1291.5715-.1845v-16.8446c0-.5255-.129-.9036-.3964-1.1249ZM495.1904,170.4654c-1.3184-1.0879-3.0978-1.6319-5.375-1.6319-1.3461,0-2.5632.1751-3.6328.5256-1.0879.3595-1.9453.7284-2.5906,1.1248-.5256.3411-.9035.6915-1.1063,1.0418-.203.3504-.3136.8114-.3136,1.3553v13.4241c0,.5071.129.8667.4148,1.088.2674.2213.6638.3319,1.1894.3319.3043,0,.5807-.0277.8207-.0922.258-.0737.4425-.1291.5623-.1845v-14.7241c.5623-.341,1.2171-.6361,1.9914-.9035.7653-.2582,1.6596-.3964,2.6647-.3964,1.3091,0,2.3696.3411,3.1624,1.0234.793.6823,1.1802,1.761,1.1802,3.2362v10.6212c0,.5071.129.8667.3872,1.088.2674.2213.6638.3319,1.2263.3319.2674,0,.5348-.0277.802-.0922.2582-.0737.452-.1291.581-.1845v-11.9305c0-2.2773-.6546-3.9646-1.9639-5.0525ZM520.5527,185.3463c-.0646-.2213-.1382-.3873-.2305-.4979h-11.2297v-8.261h9.0722c.3782,0,.6548-.1291.8574-.3965.1938-.2582.2951-.5992.2951-1.0234,0-.2581-.0367-.507-.1105-.7468s-.1477-.4057-.2213-.5164h-9.8929v-7.5972h10.2247c.3782,0,.6638-.1382.8668-.4148.2028-.2766.3041-.6178.3041-1.0418,0-.2582-.0369-.5071-.1105-.7469-.0923-.2396-.1569-.4056-.2305-.507h-12.4376c-.4979,0-.9038.1567-1.2079.4702-.2859.3134-.4518.7375-.4518,1.2538v20.4774c0,.4978.1659.9128.4518,1.2354.3041.332.7099.4979,1.2079.4979h11.8015c.3687,0,.6546-.1291.8666-.3964.1936-.2582.2859-.5994.2859-1.0235,0-.2858-.0369-.5439-.1107-.7652ZM531.986,178.179c.2308-.2492.3402-.5835.3402-1.0029,0-.237-.0363-.4595-.0971-.6698s-.1216-.3939-.1702-.5507h-8.9472c-.4013,0-.7173.1106-.9604.3343-.231.2225-.3526.558-.3526,1.0042,0,.2626.0242.4923.0729.6893.0487.1957.1095.3866.1945.5701h8.9475c.4255,0,.7536-.124.9725-.3744ZM549.152,185.3463c-.0738-.2213-.1659-.4057-.2674-.5347h-12.9724l12.3086-17.7575c.2397-.3688.4333-.6915.581-.9774.1382-.2951.212-.6177.212-.9866,0-.5807-.249-1.0787-.7192-1.4935h-14.761c-.3782,0-.664.1198-.8851.3687-.212.249-.3136.5993-.3136,1.042,0,.2673.0461.5163.129.7468.0831.2397.1661.4241.2397.5532h12.5022l-12.3545,17.7575c-.2397.3411-.4333.6638-.581.9681-.1382.295-.1936.6361-.1936,1.0049,0,.2858.0554.5624.1936.8206.1477.2674.3136.4887.5071.673h15.3328c.341,0,.6177-.1291.8389-.3964.2028-.2582.3136-.5994.3136-1.0235,0-.2858-.0369-.5439-.1107-.7652ZM566.0276,178.1327c.2489-.2489.3688-.6546.3688-1.2354,0-1.5766-.3227-2.9688-.9957-4.195-.6546-1.217-1.5674-2.1667-2.7291-2.849-1.1617-.6915-2.5078-1.0234-4.0291-1.0234-1.1986,0-2.305.212-3.3284.6454-1.0326.4333-1.9085,1.0603-2.6461,1.8716-.7376.8114-1.3184,1.8071-1.7149,2.9688-.4148,1.1709-.6269,2.4985-.6269,4.0014,0,2.0929.378,3.8724,1.1433,5.3291.756,1.4568,1.8532,2.5539,3.2639,3.2915,1.4106.7376,3.0702,1.0972,4.9972,1.0972,1.1064,0,2.0837-.1291,2.978-.3873.8851-.2674,1.6043-.6177,2.139-1.051.5348-.4241.8021-.8944.8021-1.3922,0-.3135-.0737-.5993-.2489-.8483-.1568-.2489-.3688-.461-.6546-.6453-.4979.4148-1.1617.8114-2.0192,1.1801-.8482.3688-1.7979.5532-2.8397.5532-1.9822,0-3.5404-.544-4.6745-1.6412-.8943-.8574-1.4936-2.0284-1.7886-3.522l11.5525-1.6964c.4518-.0461.7929-.2029,1.0511-.4518ZM553.258,177.81c.0461-2.0099.5532-3.5681,1.5121-4.6745,1.005-1.1709,2.2865-1.7517,3.8355-1.7517,1.5028,0,2.6737.4702,3.5128,1.4014.8574.9312,1.3277,2.1206,1.4383,3.5589l-10.2986,1.4659ZM578.4071,185.2449c-.12-.2305-.2582-.4333-.4148-.5901-.3412.212-.7746.3965-1.3001.5532-.5348.1568-1.0048.2397-1.4291.2397-1.0048,0-1.7794-.2213-2.3601-.6546-.5717-.4333-.8668-1.1709-.8668-2.222v-10.234h5.366c.3502,0,.6177-.1199.8207-.3596.1936-.2397.3041-.5624.3041-.9865,0-.2582-.0461-.5071-.1198-.7469-.0738-.2305-.1477-.4056-.2213-.5071h-6.1498v-4.5269c0-.4979-.1198-.8667-.3872-1.088s-.6546-.3319-1.1802-.3319c-.3043,0-.5807.0277-.8389.1014-.2674.0645-.461.1199-.581.1752v18.6979c0,1.89.5441,3.2453,1.6227,4.0567,1.0879.8114,2.5078,1.2171,4.2597,1.2171,1.1433,0,2.0468-.1845,2.7014-.5441.6453-.3687.9681-.8389.9681-1.4199,0-.3133-.0554-.59-.1936-.8297ZM590.6114,185.2449c-.12-.2305-.249-.4333-.4058-.5901-.341.212-.7836.3965-1.2999.5532-.5348.1568-1.0141.2397-1.4384.2397-.9956,0-1.7794-.2213-2.3601-.6546-.5717-.4333-.8576-1.1709-.8576-2.222v-10.234h5.3568c.3502,0,.6177-.1199.8297-.3596.1936-.2397.3043-.5624.3043-.9865,0-.2582-.0554-.5071-.129-.7469-.0646-.2305-.1384-.4056-.2123-.5071h-6.1496v-4.5269c0-.4979-.129-.8667-.3964-1.088s-.6546-.3319-1.1802-.3319c-.2951,0-.5807.0277-.8297.1014-.2766.0645-.4702.1199-.5902.1752v18.6979c0,1.89.5533,3.2453,1.6319,4.0567s2.5078,1.2171,4.2505,1.2171c1.1433,0,2.0468-.1845,2.7014-.5441.6453-.3687.9774-.8389.9774-1.4199,0-.3133-.0646-.59-.2028-.8297ZM608.6962,178.1327c.2581-.2489.378-.6546.378-1.2354,0-1.5766-.3319-2.9688-.9958-4.195-.6546-1.217-1.5674-2.1667-2.7383-2.849-1.1525-.6915-2.4986-1.0234-4.0199-1.0234-1.1986,0-2.3142.212-3.3376.6454-1.0142.4333-1.9085,1.0603-2.6369,1.8716-.7376.8114-1.3092,1.8071-1.7241,2.9688-.4149,1.1709-.6177,2.4985-.6177,4.0014,0,2.0929.378,3.8724,1.1433,5.3291s1.844,2.5539,3.2546,3.2915c1.4106.7376,3.0794,1.0972,4.9972,1.0972,1.1064,0,2.1021-.1291,2.9872-.3873.8759-.2674,1.595-.6177,2.1298-1.051.5348-.4241.8021-.8944.8021-1.3922,0-.3135-.0738-.5993-.2397-.8483-.1567-.2489-.378-.461-.6546-.6453-.4979.4148-1.1709.8114-2.0192,1.1801-.8574.3688-1.7979.5532-2.849.5532-1.9638,0-3.522-.544-4.6653-1.6412-.8943-.8574-1.4936-2.0284-1.7887-3.522l11.5525-1.6964c.4425-.0461.8021-.2029,1.0418-.4518ZM595.9266,177.81c.0461-2.0099.5624-3.5681,1.5121-4.6745,1.0142-1.1709,2.2957-1.7517,3.8447-1.7517,1.4936,0,2.6738.4702,3.522,1.4014s1.3277,2.1206,1.4198,3.5589l-10.2986,1.4659ZM614.9194,162.0754c-.2672-.2213-.6636-.3319-1.2076-.3319-.2859,0-.5533.0277-.8207.1014-.2487.0645-.4518.1199-.5715.1752v24.285c0,.5071.1382.8667.4148,1.088.2674.2213.673.3319,1.1894.3319.3041,0,.5715-.0277.8297-.0922.2582-.0737.4333-.1291.5625-.1845v-24.285c0-.4979-.1382-.8667-.3966-1.088Z" fill="#f6f4ff"></path>
</svg>
